<svg xmlns="http://www.w3.org/2000/svg" viewBox="0 0 64 64" width="64" height="64">
  <ellipse cx="32" cy="32" rx="24" ry="9" fill="none" stroke="#8C9EDE" stroke-width="2" transform="rotate(0 32 32)"/>
  <ellipse cx="32" cy="32" rx="24" ry="9" fill="none" stroke="#8C9EDE" stroke-width="2" transform="rotate(60 32 32)"/>
  <ellipse cx="32" cy="32" rx="24" ry="9" fill="none" stroke="#8C9EDE" stroke-width="2" transform="rotate(120 32 32)"/>

  <line x1="32" y1="32" x2="53.75" y2="35.8" stroke="#2E9C86" stroke-width="1.5" opacity="0.75"/>
  <line x1="32" y1="32" x2="39.58" y2="52.74" stroke="#2E9C86" stroke-width="1.5" opacity="0.75"/>
  <line x1="32" y1="32" x2="17.83" y2="48.94" stroke="#2E9C86" stroke-width="1.5" opacity="0.75"/>
  <line x1="53.75" y1="35.8" x2="39.58" y2="52.74" stroke="#2E9C86" stroke-width="1.5" opacity="0.55"/>
  <line x1="39.58" y1="52.74" x2="17.83" y2="48.94" stroke="#2E9C86" stroke-width="1.5" opacity="0.55"/>
  <line x1="17.83" y1="48.94" x2="53.75" y2="35.8" stroke="#2E9C86" stroke-width="1.5" opacity="0.55"/>

  <circle cx="10.25" cy="28.2" r="2" fill="#6B7FC7"/>
  <circle cx="24.42" cy="11.26" r="2" fill="#6B7FC7"/>
  <circle cx="46.17" cy="15.06" r="2" fill="#6B7FC7"/>

  <circle cx="53.75" cy="35.8" r="3.2" fill="#2E9C86"/>
  <circle cx="39.58" cy="52.74" r="3.2" fill="#2E9C86"/>
  <circle cx="17.83" cy="48.94" r="3.2" fill="#2E9C86"/>

  <circle cx="32" cy="32" r="4.5" fill="#6B7FC7"/>
</svg>
